<?xml version="1.0" encoding="UTF-8" standalone="no"?>
<!-- Created with Inkscape (http://www.inkscape.org/) -->

<svg
   xmlns:dc="http://purl.org/dc/elements/1.1/"
   xmlns:cc="http://creativecommons.org/ns#"
   xmlns:rdf="http://www.w3.org/1999/02/22-rdf-syntax-ns#"
   xmlns:svg="http://www.w3.org/2000/svg"
   xmlns="http://www.w3.org/2000/svg"
   xmlns:sodipodi="http://sodipodi.sourceforge.net/DTD/sodipodi-0.dtd"
   xmlns:inkscape="http://www.inkscape.org/namespaces/inkscape"
   width="32"
   height="32"
   id="svg2"
   version="1.1"
   inkscape:version="0.48.2 r9819"
   sodipodi:docname="New document 1">
  <defs
     id="defs4">
    <inkscape:perspective
       sodipodi:type="inkscape:persp3d"
       inkscape:vp_x="26.428116 : 26.518213 : 1"
       inkscape:vp_y="0 : 1000 : 0"
       inkscape:vp_z="32 : 16 : 1"
       inkscape:persp3d-origin="16 : 10.666667 : 1"
       id="perspective2987" />
  </defs>
  <sodipodi:namedview
     id="base"
     pagecolor="#ffffff"
     bordercolor="#666666"
     borderopacity="1.0"
     inkscape:pageopacity="0.0"
     inkscape:pageshadow="2"
     inkscape:zoom="16"
     inkscape:cx="21.082664"
     inkscape:cy="15.582974"
     inkscape:document-units="px"
     inkscape:current-layer="layer2"
     showgrid="true"
     inkscape:snap-global="true"
     inkscape:window-width="1142"
     inkscape:window-height="748"
     inkscape:window-x="727"
     inkscape:window-y="203"
     inkscape:window-maximized="0">
    <inkscape:grid
       type="xygrid"
       id="grid2985"
       empspacing="8"
       visible="true"
       enabled="true"
       snapvisiblegridlinesonly="true" />
  </sodipodi:namedview>
  <metadata
     id="metadata7">
    <rdf:RDF>
      <cc:Work
         rdf:about="">
        <dc:format>image/svg+xml</dc:format>
        <dc:type
           rdf:resource="http://purl.org/dc/dcmitype/StillImage" />
        <dc:title></dc:title>
      </cc:Work>
    </rdf:RDF>
  </metadata>
  <g
     inkscape:groupmode="layer"
     id="layer2"
     inkscape:label="Guides"
     style="display:inline">
    <path
       sodipodi:type="inkscape:offset"
       inkscape:radius="2.8067451"
       inkscape:original="M 0 -12 L -10.40625 -6 L -10.40625 6 L 0 12 L 10.40625 6 L 10.40625 -6 L 0 -12 z "
       style="fill:#e7e7e7;fill-opacity:1;stroke:#000000;stroke-width:1;stroke-linecap:round;stroke-linejoin:round;stroke-miterlimit:4;stroke-opacity:1;stroke-dashoffset:1.94881891"
       id="path3851"
       d="m -0.21875,-14.8125 a 2.8070257,2.8070257 0 0 0 -1.1875,0.375 l -10.40625,6 A 2.8070257,2.8070257 0 0 0 -13.21875,-6 l 0,12 a 2.8070257,2.8070257 0 0 0 1.40625,2.4375 l 10.40625,6 a 2.8070257,2.8070257 0 0 0 2.8125,0 l 10.40625,-6 A 2.8070257,2.8070257 0 0 0 13.21875,6 l 0,-12 A 2.8070257,2.8070257 0 0 0 11.8125,-8.4375 l -10.40625,-6 a 2.8070257,2.8070257 0 0 0 -1.625,-0.375 z"
       transform="matrix(0.80972787,0,0,0.80972787,16,15.999506)" />
    <path
       transform="matrix(0.53626825,0,0,0.53626825,16,15.998795)"
       d="m -0.21875,-14.8125 a 2.8070257,2.8070257 0 0 0 -1.1875,0.375 l -10.40625,6 A 2.8070257,2.8070257 0 0 0 -13.21875,-6 l 0,12 a 2.8070257,2.8070257 0 0 0 1.40625,2.4375 l 10.40625,6 a 2.8070257,2.8070257 0 0 0 2.8125,0 l 10.40625,-6 A 2.8070257,2.8070257 0 0 0 13.21875,6 l 0,-12 A 2.8070257,2.8070257 0 0 0 11.8125,-8.4375 l -10.40625,-6 a 2.8070257,2.8070257 0 0 0 -1.625,-0.375 z"
       id="path3853"
       style="fill:#e7e7e7;fill-opacity:1;stroke:#000000;stroke-width:1;stroke-linecap:round;stroke-linejoin:round;stroke-miterlimit:4;stroke-opacity:1;stroke-dashoffset:1.94881891"
       inkscape:original="M 0 -12 L -10.40625 -6 L -10.40625 6 L 0 12 L 10.40625 6 L 10.40625 -6 L 0 -12 z "
       inkscape:radius="2.8067451"
       sodipodi:type="inkscape:offset" />
    <path
       transform="matrix(0.5,0,0,0.5,16,16)"
       d="M 3.2153876e-7,12 -10.392305,6.0000003 l 0,-12 L -3.2153877e-7,-12 10.392305,-6.0000003 l 0,12 z"
       inkscape:randomized="0"
       inkscape:rounded="0"
       inkscape:flatsided="true"
       sodipodi:arg2="2.0943951"
       sodipodi:arg1="1.5707963"
       sodipodi:r2="10.392305"
       sodipodi:r1="12"
       sodipodi:cy="0"
       sodipodi:cx="0"
       sodipodi:sides="6"
       id="path3813"
       style="fill:#e7e7e7;fill-opacity:1;stroke:#000000;stroke-width:2;stroke-linecap:round;stroke-linejoin:round;stroke-miterlimit:4;stroke-opacity:1;stroke-dasharray:none;stroke-dashoffset:1.94881890999999996"
       sodipodi:type="star" />
    <path
       style="fill:none;stroke:#000000;stroke-width:1px;stroke-linecap:butt;stroke-linejoin:miter;stroke-opacity:1"
       d="m 16,16 0,-6"
       id="path3817"
       inkscape:connector-curvature="0" />
    <path
       inkscape:connector-curvature="0"
       id="path3819"
       d="m 16,16 5.196152,3"
       style="fill:none;stroke:#000000;stroke-width:1px;stroke-linecap:butt;stroke-linejoin:miter;stroke-opacity:1"
       inkscape:transform-center-y="1.5"
       inkscape:transform-center-x="-2.598076" />
    <path
       inkscape:transform-center-x="2.598076"
       inkscape:transform-center-y="1.5"
       style="fill:none;stroke:#000000;stroke-width:1px;stroke-linecap:butt;stroke-linejoin:miter;stroke-opacity:1"
       d="m 16,16 -5.196152,3"
       id="path3821"
       inkscape:connector-curvature="0" />
    <path
       inkscape:connector-curvature="0"
       id="path3823"
       d="m 16,28 0,-6"
       style="fill:none;stroke:#000000;stroke-width:1px;stroke-linecap:butt;stroke-linejoin:miter;stroke-opacity:1"
       inkscape:transform-center-y="9" />
    <path
       inkscape:transform-center-y="-4.5"
       style="fill:none;stroke:#000000;stroke-width:1px;stroke-linecap:butt;stroke-linejoin:miter;stroke-opacity:1"
       d="m 5.6076952,10 5.1961528,3"
       id="path3825"
       inkscape:connector-curvature="0"
       inkscape:transform-center-x="7.7942284" />
    <path
       inkscape:transform-center-x="-7.7942285"
       inkscape:connector-curvature="0"
       id="path3827"
       d="m 26.392305,10 -5.196153,3"
       style="fill:none;stroke:#000000;stroke-width:1px;stroke-linecap:butt;stroke-linejoin:miter;stroke-opacity:1"
       inkscape:transform-center-y="-4.5" />
    <path
       transform="translate(16,-12)"
       style="fill:#e7e7e7;fill-opacity:1;stroke:#000000;stroke-width:1;stroke-linecap:round;stroke-linejoin:round;stroke-miterlimit:4;stroke-opacity:1;stroke-dashoffset:1.94881891"
       d="M 3.2153876e-7,12 -10.392305,6.0000003 l 0,-3 0,-3 0,-3 c 0,-2.3500252 0.5726939,-3.3306451 2.5980762,-4.5000001 L -5.1961527,-8.9999999 -2.5980765,-10.5 -3.2153877e-7,-12 10.392305,-6.0000003 l 0,12 z"
       id="path3829"
       inkscape:connector-curvature="0"
       sodipodi:nodetypes="cccccccccccc" />
    <path
       transform="translate(56,4)"
       d="M 3.2153876e-7,12 -10.392305,6.0000003 l 0,-12 L -3.2153877e-7,-12 10.392305,-6.0000003 l 0,12 z"
       inkscape:randomized="0"
       inkscape:rounded="0"
       inkscape:flatsided="true"
       sodipodi:arg2="2.0943951"
       sodipodi:arg1="1.5707963"
       sodipodi:r2="10.392305"
       sodipodi:r1="12"
       sodipodi:cy="0"
       sodipodi:cx="0"
       sodipodi:sides="6"
       id="path3832"
       style="fill:#e7e7e7;fill-opacity:1;stroke:#000000;stroke-width:1;stroke-linecap:round;stroke-linejoin:round;stroke-miterlimit:4;stroke-opacity:1;stroke-dasharray:none;stroke-dashoffset:1.94881891"
       sodipodi:type="star" />
    <path
       sodipodi:type="star"
       style="fill:#e7e7e7;fill-opacity:1;stroke:#000000;stroke-width:2;stroke-linecap:round;stroke-linejoin:round;stroke-miterlimit:4;stroke-opacity:1;stroke-dasharray:none;stroke-dashoffset:1.94881891"
       id="path3834"
       sodipodi:sides="6"
       sodipodi:cx="0"
       sodipodi:cy="0"
       sodipodi:r1="12"
       sodipodi:r2="10.392305"
       sodipodi:arg1="1.5707963"
       sodipodi:arg2="2.0943951"
       inkscape:flatsided="true"
       inkscape:rounded="0"
       inkscape:randomized="0"
       d="M 3.2153876e-7,12 -10.392305,6.0000003 l 0,-12 L -3.2153877e-7,-12 10.392305,-6.0000003 l 0,12 z"
       transform="matrix(0.5,0,0,0.5,56,4)" />
    <path
       inkscape:connector-curvature="0"
       id="path3836"
       d="m 56,4 0,-6"
       style="fill:none;stroke:#000000;stroke-width:1px;stroke-linecap:butt;stroke-linejoin:miter;stroke-opacity:1" />
    <path
       inkscape:transform-center-x="-2.598076"
       inkscape:transform-center-y="1.5"
       style="fill:none;stroke:#000000;stroke-width:1px;stroke-linecap:butt;stroke-linejoin:miter;stroke-opacity:1"
       d="m 56,4 5.196152,3"
       id="path3838"
       inkscape:connector-curvature="0" />
    <path
       inkscape:connector-curvature="0"
       id="path3840"
       d="M 56,4 50.803848,7"
       style="fill:none;stroke:#000000;stroke-width:1px;stroke-linecap:butt;stroke-linejoin:miter;stroke-opacity:1"
       inkscape:transform-center-y="1.5"
       inkscape:transform-center-x="2.598076" />
    <path
       inkscape:transform-center-y="9"
       style="fill:none;stroke:#000000;stroke-width:1px;stroke-linecap:butt;stroke-linejoin:miter;stroke-opacity:1"
       d="m 56,16 0,-6"
       id="path3842"
       inkscape:connector-curvature="0" />
    <path
       inkscape:transform-center-x="7.7942284"
       inkscape:connector-curvature="0"
       id="path3844"
       d="m 45.607696,-2 5.196152,3"
       style="fill:none;stroke:#000000;stroke-width:1px;stroke-linecap:butt;stroke-linejoin:miter;stroke-opacity:1"
       inkscape:transform-center-y="-4.5" />
    <path
       inkscape:transform-center-y="-4.5"
       style="fill:none;stroke:#000000;stroke-width:1px;stroke-linecap:butt;stroke-linejoin:miter;stroke-opacity:1"
       d="M 66.392305,-2 61.196152,1"
       id="path3846"
       inkscape:connector-curvature="0"
       inkscape:transform-center-x="-7.7942285" />
  </g>
  <g
     inkscape:label="Layer 1"
     inkscape:groupmode="layer"
     id="layer1"
     transform="translate(0,-1020.3622)">
    <path
       inkscape:connector-curvature="0"
       id="path3781"
       d="m 30,1049.3622 11,-6 11,6 0,12 -11,6 -11,-6 z"
       style="fill:none;stroke:#000000;stroke-width:0.1;stroke-linecap:butt;stroke-linejoin:miter;stroke-miterlimit:4;stroke-opacity:1;stroke-dasharray:none" />
    <path
       inkscape:connector-curvature="0"
       id="path3787"
       d="m -24,1034.3622 11,-6 11,6 0,12 -11,6 -11,-6 z"
       style="fill:none;stroke:#000000;stroke-width:0.1;stroke-linecap:butt;stroke-linejoin:miter;stroke-miterlimit:4;stroke-opacity:1;stroke-dasharray:none" />
    <path
       transform="translate(-27.984375,1023.5184)"
       d="m 13,13.5 a 4.5,4.5 0 1 1 -9,0 4.5,4.5 0 1 1 9,0 z"
       sodipodi:ry="4.5"
       sodipodi:rx="4.5"
       sodipodi:cy="13.5"
       sodipodi:cx="8.5"
       id="path3789"
       style="fill:#e7e7e7;fill-opacity:1;stroke:#dd7236;stroke-width:0.1;stroke-linecap:round;stroke-linejoin:round;stroke-miterlimit:4;stroke-opacity:1;stroke-dasharray:none;stroke-dashoffset:1.94881891"
       sodipodi:type="arc" />
    <path
       sodipodi:nodetypes="cccssccccsssscc"
       inkscape:connector-curvature="0"
       id="use3795"
       d="m -153,1029.3622 0,-6 -0.0312,-3.3437 c 0,-0.6214 -0.11604,-1.2116 -0.34375,-1.75 -0.22771,-0.5385 -0.56158,-1.0303 -0.96875,-1.4375 -0.40717,-0.4072 -0.98081,-0.7299 -1.4375,-1.0313 -0.45668,-0.3013 -2.71875,-1.4375 -2.71875,-1.4375 l -5.5,-3 -5.5,3 c 0,0 -2.26206,1.1361 -2.71875,1.4375 -0.45669,0.3014 -1.03033,0.6241 -1.4375,1.0313 -0.40717,0.4071 -0.74104,0.8991 -0.96875,1.4375 -0.22771,0.5383 -0.375,1.1286 -0.375,1.75 l 0,3.3437 0,6"
       style="fill:#e7e7e7;fill-opacity:1;stroke:#dd7236;stroke-width:0.1;stroke-linecap:round;stroke-linejoin:round;stroke-miterlimit:4;stroke-opacity:1;stroke-dashoffset:1.94881891" />
  </g>
</svg>
