<?xml version="1.0" encoding="UTF-8" standalone="no"?>
<!-- Created with Inkscape (http://www.inkscape.org/) -->

<svg
   xmlns:dc="http://purl.org/dc/elements/1.1/"
   xmlns:cc="http://creativecommons.org/ns#"
   xmlns:rdf="http://www.w3.org/1999/02/22-rdf-syntax-ns#"
   xmlns:svg="http://www.w3.org/2000/svg"
   xmlns="http://www.w3.org/2000/svg"
   xmlns:sodipodi="http://sodipodi.sourceforge.net/DTD/sodipodi-0.dtd"
   xmlns:inkscape="http://www.inkscape.org/namespaces/inkscape"
   width="32"
   height="32"
   id="svg2"
   version="1.1"
   inkscape:version="0.48.2 r9819"
   sodipodi:docname="boxes2.svg"
   enable-background="new">
  <defs
     id="defs4">
    <inkscape:perspective
       sodipodi:type="inkscape:persp3d"
       inkscape:vp_x="26.428116 : 26.518213 : 1"
       inkscape:vp_y="0 : 1000 : 0"
       inkscape:vp_z="32 : 16 : 1"
       inkscape:persp3d-origin="16 : 10.666667 : 1"
       id="perspective2987" />
  </defs>
  <sodipodi:namedview
     id="base"
     pagecolor="#ffffff"
     bordercolor="#666666"
     borderopacity="1.0"
     inkscape:pageopacity="0.0"
     inkscape:pageshadow="2"
     inkscape:zoom="11.313708"
     inkscape:cx="22.850431"
     inkscape:cy="14.600593"
     inkscape:document-units="px"
     inkscape:current-layer="layer3"
     showgrid="false"
     inkscape:snap-global="true"
     inkscape:window-width="1142"
     inkscape:window-height="748"
     inkscape:window-x="727"
     inkscape:window-y="203"
     inkscape:window-maximized="0">
    <inkscape:grid
       type="xygrid"
       id="grid2985"
       empspacing="8"
       visible="true"
       enabled="true"
       snapvisiblegridlinesonly="true" />
  </sodipodi:namedview>
  <metadata
     id="metadata7">
    <rdf:RDF>
      <cc:Work
         rdf:about="">
        <dc:format>image/svg+xml</dc:format>
        <dc:type
           rdf:resource="http://purl.org/dc/dcmitype/StillImage" />
        <dc:title></dc:title>
      </cc:Work>
    </rdf:RDF>
  </metadata>
  <g
     inkscape:groupmode="layer"
     id="layer2"
     inkscape:label="Guides"
     style="display:none">
    <path
       style="fill:#e7e7e7;fill-opacity:1;stroke:#000000;stroke-width:1;stroke-linecap:round;stroke-linejoin:round;stroke-miterlimit:4;stroke-opacity:1;stroke-dashoffset:1.94881891"
       d="m 16,-5 -10.3923053,-6 0,-3 0,-3 0,-3 c 0,-2.350025 0.5726939,-3.330645 2.5980762,-4.5 l 2.5980761,-1.5 2.598076,-1.5 2.598076,-1.5 10.392306,6 0,12 z"
       id="path3829"
       inkscape:connector-curvature="0"
       sodipodi:nodetypes="cccccccccccc" />
    <path
       transform="translate(56,4)"
       d="M 3.2153876e-7,12 -10.392305,6.0000003 l 0,-12 L -3.2153877e-7,-12 10.392305,-6.0000003 l 0,12 z"
       inkscape:randomized="0"
       inkscape:rounded="0"
       inkscape:flatsided="true"
       sodipodi:arg2="2.0943951"
       sodipodi:arg1="1.5707963"
       sodipodi:r2="10.392305"
       sodipodi:r1="12"
       sodipodi:cy="0"
       sodipodi:cx="0"
       sodipodi:sides="6"
       id="path3832"
       style="fill:#e7e7e7;fill-opacity:1;stroke:#000000;stroke-width:1;stroke-linecap:round;stroke-linejoin:round;stroke-miterlimit:4;stroke-opacity:1;stroke-dasharray:none;stroke-dashoffset:1.94881891"
       sodipodi:type="star" />
    <path
       sodipodi:type="star"
       style="fill:#e7e7e7;fill-opacity:1;stroke:#000000;stroke-width:2;stroke-linecap:round;stroke-linejoin:round;stroke-miterlimit:4;stroke-opacity:1;stroke-dasharray:none;stroke-dashoffset:1.94881891"
       id="path3834"
       sodipodi:sides="6"
       sodipodi:cx="0"
       sodipodi:cy="0"
       sodipodi:r1="12"
       sodipodi:r2="10.392305"
       sodipodi:arg1="1.5707963"
       sodipodi:arg2="2.0943951"
       inkscape:flatsided="true"
       inkscape:rounded="0"
       inkscape:randomized="0"
       d="M 3.2153876e-7,12 -10.392305,6.0000003 l 0,-12 L -3.2153877e-7,-12 10.392305,-6.0000003 l 0,12 z"
       transform="matrix(0.5,0,0,0.5,56,4)" />
    <path
       inkscape:connector-curvature="0"
       id="path3836"
       d="m 56,4 0,-6"
       style="fill:none;stroke:#000000;stroke-width:1px;stroke-linecap:butt;stroke-linejoin:miter;stroke-opacity:1" />
    <path
       inkscape:transform-center-x="-2.598076"
       inkscape:transform-center-y="1.5"
       style="fill:none;stroke:#000000;stroke-width:1px;stroke-linecap:butt;stroke-linejoin:miter;stroke-opacity:1"
       d="m 56,4 5.196152,3"
       id="path3838"
       inkscape:connector-curvature="0" />
    <path
       inkscape:connector-curvature="0"
       id="path3840"
       d="M 56,4 50.803848,7"
       style="fill:none;stroke:#000000;stroke-width:1px;stroke-linecap:butt;stroke-linejoin:miter;stroke-opacity:1"
       inkscape:transform-center-y="1.5"
       inkscape:transform-center-x="2.598076" />
    <path
       inkscape:transform-center-y="9"
       style="fill:none;stroke:#000000;stroke-width:1px;stroke-linecap:butt;stroke-linejoin:miter;stroke-opacity:1"
       d="m 56,16 0,-6"
       id="path3842"
       inkscape:connector-curvature="0" />
    <path
       inkscape:transform-center-x="7.7942284"
       inkscape:connector-curvature="0"
       id="path3844"
       d="m 45.607696,-2 5.196152,3"
       style="fill:none;stroke:#000000;stroke-width:1px;stroke-linecap:butt;stroke-linejoin:miter;stroke-opacity:1"
       inkscape:transform-center-y="-4.5" />
    <path
       inkscape:transform-center-y="-4.5"
       style="fill:none;stroke:#000000;stroke-width:1px;stroke-linecap:butt;stroke-linejoin:miter;stroke-opacity:1"
       d="M 66.392305,-2 61.196152,1"
       id="path3846"
       inkscape:connector-curvature="0"
       inkscape:transform-center-x="-7.7942285" />
    <path
       transform="matrix(0.80972787,0,0,0.80972787,16,68.999506)"
       d="m -0.21875,-14.8125 a 2.8070257,2.8070257 0 0 0 -1.1875,0.375 l -10.40625,6 A 2.8070257,2.8070257 0 0 0 -13.21875,-6 l 0,12 a 2.8070257,2.8070257 0 0 0 1.40625,2.4375 l 10.40625,6 a 2.8070257,2.8070257 0 0 0 2.8125,0 l 10.40625,-6 A 2.8070257,2.8070257 0 0 0 13.21875,6 l 0,-12 A 2.8070257,2.8070257 0 0 0 11.8125,-8.4375 l -10.40625,-6 a 2.8070257,2.8070257 0 0 0 -1.625,-0.375 z"
       id="path3875"
       style="fill:#e7e7e7;fill-opacity:1;stroke:#000000;stroke-width:1.23498285;stroke-linecap:round;stroke-linejoin:round;stroke-miterlimit:4;stroke-opacity:1;stroke-dasharray:none;stroke-dashoffset:1.94881891"
       inkscape:original="M 0 -12 L -10.40625 -6 L -10.40625 6 L 0 12 L 10.40625 6 L 10.40625 -6 L 0 -12 z "
       inkscape:radius="2.8067451"
       sodipodi:type="inkscape:offset" />
    <path
       inkscape:transform-center-y="9"
       style="fill:none;stroke:#000000;stroke-width:0.5;stroke-linecap:butt;stroke-linejoin:miter;stroke-miterlimit:4;stroke-opacity:1;stroke-dasharray:none"
       d="m 16,81 0,-6"
       id="path3877"
       inkscape:connector-curvature="0" />
    <path
       inkscape:transform-center-x="7.7942284"
       inkscape:connector-curvature="0"
       id="path3879"
       d="m 5.6076952,63 5.1961528,3"
       style="fill:none;stroke:#000000;stroke-width:0.5;stroke-linecap:butt;stroke-linejoin:miter;stroke-miterlimit:4;stroke-opacity:1;stroke-dasharray:none"
       inkscape:transform-center-y="-4.5" />
    <path
       inkscape:transform-center-y="-4.5"
       style="fill:none;stroke:#000000;stroke-width:0.5;stroke-linecap:butt;stroke-linejoin:miter;stroke-miterlimit:4;stroke-opacity:1;stroke-dasharray:none"
       d="m 26.392305,63 -5.196153,3"
       id="path3881"
       inkscape:connector-curvature="0"
       inkscape:transform-center-x="-7.7942285" />
    <path
       sodipodi:type="inkscape:offset"
       inkscape:radius="2.8067451"
       inkscape:original="M 0 -12 L -10.40625 -6 L -10.40625 6 L 0 12 L 10.40625 6 L 10.40625 -6 L 0 -12 z "
       style="fill:#e7e7e7;fill-opacity:1;stroke:#000000;stroke-width:1.86473835;stroke-linecap:round;stroke-linejoin:round;stroke-miterlimit:4;stroke-opacity:1;stroke-dasharray:none;stroke-dashoffset:1.94881891"
       id="path3883"
       d="m -0.21875,-14.8125 a 2.8070257,2.8070257 0 0 0 -1.1875,0.375 l -10.40625,6 A 2.8070257,2.8070257 0 0 0 -13.21875,-6 l 0,12 a 2.8070257,2.8070257 0 0 0 1.40625,2.4375 l 10.40625,6 a 2.8070257,2.8070257 0 0 0 2.8125,0 l 10.40625,-6 A 2.8070257,2.8070257 0 0 0 13.21875,6 l 0,-12 A 2.8070257,2.8070257 0 0 0 11.8125,-8.4375 l -10.40625,-6 a 2.8070257,2.8070257 0 0 0 -1.625,-0.375 z"
       transform="matrix(0.53626825,0,0,0.53626825,16,68.998795)" />
    <path
       inkscape:transform-center-y="-1.9965"
       inkscape:connector-curvature="0"
       d="M 16,69 9.0839219,72.993 M 16,69 22.916078,72.993 M 16,69 16,61.014"
       style="fill:none;stroke:#000000;stroke-width:0.5;stroke-linecap:butt;stroke-linejoin:miter;stroke-miterlimit:4;stroke-opacity:1;stroke-dasharray:none"
       id="path3885" />
    <path
       transform="matrix(0.9,0,0,0.9,12,77.8)"
       d="M 3.2153876e-7,12 -10.392305,6.0000003 l 0,-12 L -3.2153877e-7,-12 10.392305,-6.0000003 l 0,12 z"
       inkscape:randomized="0"
       inkscape:rounded="0"
       inkscape:flatsided="true"
       sodipodi:arg2="2.0943951"
       sodipodi:arg1="1.5707963"
       sodipodi:r2="10.392305"
       sodipodi:r1="12"
       sodipodi:cy="0"
       sodipodi:cx="0"
       sodipodi:sides="6"
       id="path3920"
       style="fill:#e7e7e7;fill-opacity:1;stroke:#000000;stroke-width:1;stroke-linecap:round;stroke-linejoin:round;stroke-miterlimit:4;stroke-opacity:1;stroke-dasharray:none;stroke-dashoffset:1.94881891"
       sodipodi:type="star" />
    <path
       style="fill:#f6f5f0;fill-opacity:1;stroke:none"
       d="m 44.284271,2.4765828 0,-10.8000002 9.353074,5.4000002 0,10.8 z"
       id="path3927"
       inkscape:connector-curvature="0"
       sodipodi:nodetypes="ccccc"
       inkscape:transform-center-x="-4.6765371"
       inkscape:transform-center-y="-2.7000001" />
    <path
       inkscape:transform-center-y="-2.6999999"
       inkscape:transform-center-x="4.6765372"
       sodipodi:nodetypes="ccccc"
       inkscape:connector-curvature="0"
       id="path3929"
       d="m 44.284271,2.4765828 -9.353074,5.4000003 0,-10.8 9.353074,-5.4000003 z"
       style="fill:#c9ced1;fill-opacity:1;stroke:none" />
    <path
       id="path3931"
       d="m 44.096771,-9.5234172 a 2.2729269,2.2729269 0 0 0 -0.9375,0.3125 l -8.4375,4.84375 a 2.2729269,2.2729269 0 0 0 -1.15625,2 l 0,9.6875 a 2.2729269,2.2729269 0 0 0 1.15625,2 l 8.4375,4.8437502 a 2.2729269,2.2729269 0 0 0 2.25,0 l 8.4375,-4.8437502 a 2.2729269,2.2729269 0 0 0 1.15625,-2 l 0,-9.6875 a 2.2729269,2.2729269 0 0 0 -1.15625,-2 l -8.4375,-4.84375 a 2.2729269,2.2729269 0 0 0 -1.3125,-0.3125 z m -0.09375,4.0625 a 1.5053188,1.5053188 0 0 1 0.15625,0 1.5053188,1.5053188 0 0 1 0.875,0.1875 l 5.59375,3.21875 a 1.5053188,1.5053188 0 0 1 0.75,1.31249998 l 0,6.43750002 a 1.5053188,1.5053188 0 0 1 -0.75,1.3125 l -5.59375,3.2187502 a 1.5053188,1.5053188 0 0 1 -1.5,0 l -5.59375,-3.2187502 a 1.5053188,1.5053188 0 0 1 -0.75,-1.3125 l 0,-6.43750002 a 1.5053188,1.5053188 0 0 1 0.75,-1.31249998 l 5.59375,-3.21875 a 1.5053188,1.5053188 0 0 1 0.46875,-0.1875 z"
       style="fill:#ffffff;fill-opacity:1;stroke:#ffab40;stroke-width:1;stroke-linecap:round;stroke-linejoin:round;stroke-miterlimit:4;stroke-opacity:1;stroke-dasharray:none;stroke-dashoffset:1.94881891"
       inkscape:connector-curvature="0" />
    <path
       inkscape:transform-center-y="5.4"
       sodipodi:nodetypes="ccccc"
       inkscape:connector-curvature="0"
       id="path3933"
       d="m 57.277358,25.63433 9.353074,5.4 -9.353074,5.4 -9.353074,-5.4 z"
       style="fill:#e7e7e7;fill-opacity:1;stroke:none" />
    <path
       style="fill:#f6f5f0;fill-opacity:1;stroke:none"
       d="m 57.277358,25.63433 0,-10.8 9.353074,5.4 0,10.8 z"
       id="path3935"
       inkscape:connector-curvature="0"
       sodipodi:nodetypes="ccccc"
       inkscape:transform-center-x="-4.6765371"
       inkscape:transform-center-y="-2.7000001" />
    <path
       inkscape:transform-center-y="-2.6999999"
       inkscape:transform-center-x="4.6765372"
       sodipodi:nodetypes="ccccc"
       inkscape:connector-curvature="0"
       id="path3937"
       d="m 57.277358,25.63433 -9.353074,5.4 0,-10.8 9.353074,-5.4 z"
       style="fill:#c9ced1;fill-opacity:1;stroke:none" />
  </g>
  <g
     inkscape:groupmode="layer"
     id="layer3"
     inkscape:label="Final">
    <path
       style="display:inline;fill:#dbdbdb;fill-opacity:1;stroke:none"
       d="M 16,16.001706 26.967215,22.333628 16,28.665553 5.0327849,22.333628 z"
       id="path3925"
       inkscape:connector-curvature="0"
       sodipodi:nodetypes="ccccc"
       inkscape:transform-center-y="6.3319254" />
    <path
       inkscape:transform-center-y="-3.1659628"
       inkscape:transform-center-x="-5.4836076"
       sodipodi:nodetypes="ccccc"
       inkscape:connector-curvature="0"
       id="path3923"
       d="m 16,16.001706 0,-12.6638515 10.967215,6.3319254 0,12.6638481 z"
       style="display:inline;fill:#e2e2e2;fill-opacity:1;stroke:none" />
    <path
       style="display:inline;fill:#d3d3d3;fill-opacity:1;stroke:none"
       d="m 16,16.001706 -10.9672153,6.331922 0,-12.6638481 L 16,3.3378547 z"
       id="path3918"
       inkscape:connector-curvature="0"
       sodipodi:nodetypes="ccccc"
       inkscape:transform-center-x="5.4836078"
       inkscape:transform-center-y="-3.1659627" />
    <path
       style="display:inline;fill:#ffab40;fill-opacity:1;stroke:#ffffff;stroke-width:2.34515714999999991;stroke-linecap:round;stroke-linejoin:round;stroke-miterlimit:4;stroke-opacity:1;stroke-dasharray:none;stroke-dashoffset:1.94881890999999996"
       d="M 15.780141,1.9307604 A 2.6651857,2.6651857 0 0 0 14.680848,2.2971913 L 4.7872166,7.9768689 A 2.6651857,2.6651857 0 0 0 3.4314225,10.322028 l 0,11.359353 a 2.6651857,2.6651857 0 0 0 1.3557941,2.345159 l 9.8936314,5.679677 a 2.6651857,2.6651857 0 0 0 2.638305,0 l 9.893632,-5.679677 a 2.6651857,2.6651857 0 0 0 1.355792,-2.345159 l 0,-11.359353 A 2.6651857,2.6651857 0 0 0 27.212785,7.9768689 L 17.319153,2.2971913 A 2.6651857,2.6651857 0 0 0 15.780141,1.9307604 z m -0.109954,4.7636007 a 1.7651049,1.7651049 0 0 1 0.183215,0 1.7651049,1.7651049 0 0 1 1.026004,0.2198585 l 6.55912,3.7742364 a 1.7651049,1.7651049 0 0 1 0.879433,1.53901 l 0,7.548475 a 1.7651049,1.7651049 0 0 1 -0.879433,1.53901 l -6.559111,3.774238 a 1.7651049,1.7651049 0 0 1 -1.758867,0 L 8.5614498,21.314951 a 1.7651049,1.7651049 0 0 1 -0.879434,-1.53901 l 0,-7.548475 a 1.7651049,1.7651049 0 0 1 0.8794383,-1.53901 L 15.120565,6.9142196 a 1.7651049,1.7651049 0 0 1 0.549646,-0.2198585 z"
       id="path3851"
       inkscape:connector-curvature="0" />
  </g>
  <g
     inkscape:label="Layer 1"
     inkscape:groupmode="layer"
     id="layer1"
     transform="translate(0,-1020.3622)"
     style="display:none">
    <path
       inkscape:connector-curvature="0"
       id="path3781"
       d="m 30,1049.3622 11,-6 11,6 0,12 -11,6 -11,-6 z"
       style="fill:none;stroke:#000000;stroke-width:0.1;stroke-linecap:butt;stroke-linejoin:miter;stroke-miterlimit:4;stroke-opacity:1;stroke-dasharray:none" />
    <path
       inkscape:connector-curvature="0"
       id="path3787"
       d="m -24,1034.3622 11,-6 11,6 0,12 -11,6 -11,-6 z"
       style="fill:none;stroke:#000000;stroke-width:0.1;stroke-linecap:butt;stroke-linejoin:miter;stroke-miterlimit:4;stroke-opacity:1;stroke-dasharray:none" />
    <path
       transform="translate(-27.984375,1023.5184)"
       d="M 13,13.5 C 13,15.985281 10.985281,18 8.5,18 6.0147186,18 4,15.985281 4,13.5 4,11.014719 6.0147186,9 8.5,9 10.985281,9 13,11.014719 13,13.5 z"
       sodipodi:ry="4.5"
       sodipodi:rx="4.5"
       sodipodi:cy="13.5"
       sodipodi:cx="8.5"
       id="path3789"
       style="fill:#e7e7e7;fill-opacity:1;stroke:#dd7236;stroke-width:0.1;stroke-linecap:round;stroke-linejoin:round;stroke-miterlimit:4;stroke-opacity:1;stroke-dasharray:none;stroke-dashoffset:1.94881891"
       sodipodi:type="arc" />
    <path
       sodipodi:nodetypes="cccssccccsssscc"
       inkscape:connector-curvature="0"
       id="use3795"
       d="m -153,1029.3622 0,-6 -0.0312,-3.3437 c 0,-0.6214 -0.11604,-1.2116 -0.34375,-1.75 -0.22771,-0.5385 -0.56158,-1.0303 -0.96875,-1.4375 -0.40717,-0.4072 -0.98081,-0.7299 -1.4375,-1.0313 -0.45668,-0.3013 -2.71875,-1.4375 -2.71875,-1.4375 l -5.5,-3 -5.5,3 c 0,0 -2.26206,1.1361 -2.71875,1.4375 -0.45669,0.3014 -1.03033,0.6241 -1.4375,1.0313 -0.40717,0.4071 -0.74104,0.8991 -0.96875,1.4375 -0.22771,0.5383 -0.375,1.1286 -0.375,1.75 l 0,3.3437 0,6"
       style="fill:#e7e7e7;fill-opacity:1;stroke:#dd7236;stroke-width:0.1;stroke-linecap:round;stroke-linejoin:round;stroke-miterlimit:4;stroke-opacity:1;stroke-dashoffset:1.94881891" />
  </g>
</svg>
