<?xml version="1.0" encoding="UTF-8" standalone="no"?>
<!-- Created with Inkscape (http://www.inkscape.org/) -->

<svg
   xmlns:dc="http://purl.org/dc/elements/1.1/"
   xmlns:cc="http://creativecommons.org/ns#"
   xmlns:rdf="http://www.w3.org/1999/02/22-rdf-syntax-ns#"
   xmlns:svg="http://www.w3.org/2000/svg"
   xmlns="http://www.w3.org/2000/svg"
   xmlns:sodipodi="http://sodipodi.sourceforge.net/DTD/sodipodi-0.dtd"
   xmlns:inkscape="http://www.inkscape.org/namespaces/inkscape"
   width="32"
   height="32"
   id="svg2"
   version="1.1"
   inkscape:version="0.48.2 r9819"
   sodipodi:docname="star.svg">
  <defs
     id="defs4" />
  <sodipodi:namedview
     id="base"
     pagecolor="#ffffff"
     bordercolor="#666666"
     borderopacity="1.0"
     inkscape:pageopacity="0.0"
     inkscape:pageshadow="2"
     inkscape:zoom="1"
     inkscape:cx="1.0842976"
     inkscape:cy="18.823602"
     inkscape:document-units="px"
     inkscape:current-layer="g3779"
     showgrid="false"
     inkscape:window-width="1295"
     inkscape:window-height="1083"
     inkscape:window-x="299"
     inkscape:window-y="257"
     inkscape:window-maximized="0">
    <inkscape:grid
       type="xygrid"
       id="grid2985"
       empspacing="4"
       visible="true"
       enabled="true"
       snapvisiblegridlinesonly="true" />
  </sodipodi:namedview>
  <metadata
     id="metadata7">
    <rdf:RDF>
      <cc:Work
         rdf:about="">
        <dc:format>image/svg+xml</dc:format>
        <dc:type
           rdf:resource="http://purl.org/dc/dcmitype/StillImage" />
        <dc:title></dc:title>
      </cc:Work>
    </rdf:RDF>
  </metadata>
  <g
     inkscape:label="Unselected"
     inkscape:groupmode="layer"
     id="layer1"
     transform="translate(0,-1020.3622)"
     style="display:inline">
    <path
       inkscape:transform-center-y="-40"
       sodipodi:end="1.8849556"
       sodipodi:start="1.2566371"
       d="m 424.72136,588.4467 a 80,80 0 0 1 -49.44272,0 L 400,512.36218 z"
       sodipodi:ry="80"
       sodipodi:rx="80"
       sodipodi:cy="512.36218"
       sodipodi:cx="400"
       id="path3789"
       style="fill:none;stroke:#000000;stroke-width:1;stroke-linejoin:round;stroke-miterlimit:4;stroke-opacity:1;stroke-dasharray:none"
       sodipodi:type="arc"
       transform="translate(-280,0)" />
    <path
       inkscape:transform-center-x="36.084518"
       transform="matrix(0.30901699,-0.95105652,0.95105652,0.30901699,-566.97671,789.73481)"
       sodipodi:type="arc"
       style="fill:none;stroke:#000000;stroke-width:1;stroke-linejoin:round;stroke-miterlimit:4;stroke-opacity:1;stroke-dasharray:none"
       id="path3791"
       sodipodi:cx="400"
       sodipodi:cy="512.36218"
       sodipodi:rx="80"
       sodipodi:ry="80"
       d="m 424.72136,588.4467 a 80,80 0 0 1 -49.44272,0 L 400,512.36218 z"
       sodipodi:start="1.2566371"
       sodipodi:end="1.8849556"
       inkscape:transform-center-y="-1.2099509" />
    <path
       inkscape:transform-center-y="26.679141"
       sodipodi:end="1.8849556"
       sodipodi:start="1.2566371"
       d="m 424.72136,588.4467 a 80,80 0 0 1 -49.44272,0 L 400,512.36218 z"
       sodipodi:ry="80"
       sodipodi:rx="80"
       sodipodi:cy="512.36218"
       sodipodi:cx="400"
       id="path3793"
       style="fill:none;stroke:#000000;stroke-width:1;stroke-linejoin:round;stroke-miterlimit:4;stroke-opacity:1;stroke-dasharray:none"
       sodipodi:type="arc"
       transform="matrix(-0.809017,-0.58778525,0.58778525,-0.809017,95.425039,1306.7074)"
       inkscape:transform-center-x="14.662145" />
    <path
       inkscape:transform-center-x="-14.662188"
       transform="matrix(-0.80901699,0.58778526,-0.58778526,-0.80901699,791.7886,836.47917)"
       sodipodi:type="arc"
       style="fill:none;stroke:#000000;stroke-width:1;stroke-linejoin:round;stroke-miterlimit:4;stroke-opacity:1;stroke-dasharray:none"
       id="path3795"
       sodipodi:cx="400"
       sodipodi:cy="512.36218"
       sodipodi:rx="80"
       sodipodi:ry="80"
       d="m 424.72136,588.4467 a 80,80 0 0 1 -49.44272,0 L 400,512.36218 z"
       sodipodi:start="1.2566371"
       sodipodi:end="1.8849556"
       inkscape:transform-center-y="26.67912" />
    <path
       inkscape:transform-center-y="-1.209992"
       sodipodi:end="1.8849556"
       sodipodi:start="1.2566371"
       d="m 424.72136,588.4467 a 80,80 0 0 1 -49.44272,0 L 400,512.36218 z"
       sodipodi:ry="80"
       sodipodi:rx="80"
       sodipodi:cy="512.36218"
       sodipodi:cx="400"
       id="path3797"
       style="fill:none;stroke:#000000;stroke-width:1;stroke-linejoin:round;stroke-miterlimit:4;stroke-opacity:1;stroke-dasharray:none"
       sodipodi:type="arc"
       transform="matrix(0.309017,0.95105651,-0.95105651,0.309017,559.76314,28.889553)"
       inkscape:transform-center-x="-36.084553" />
  </g>
  <g
     style="display:inline"
     transform="translate(0,-1020.3622)"
     id="g3779"
     inkscape:groupmode="layer"
     inkscape:label="blankStar">
    <path
       transform="matrix(0.14,0,0,0.14,-39.93875,954.00345)"
       d="m 399.375,497.96875 a 14.427614,14.427614 0 0 0 -13.09375,9.9375 l -14.71875,45.3125 -47.65625,0 a 14.427614,14.427614 0 0 0 -8.46875,26.125 l 38.53125,28 L 339.25,652.625 a 14.427614,14.427614 0 0 0 22.1875,16.125 L 400,640.71875 438.5625,668.75 A 14.427614,14.427614 0 0 0 460.75,652.625 l -14.71875,-45.28125 38.53125,-28 a 14.427614,14.427614 0 0 0 -8.46875,-26.125 l -47.65625,0 -14.71875,-45.3125 a 14.427614,14.427614 0 0 0 -14.34375,-9.9375 z"
       id="path3781"
       style="fill:none;stroke:#000000;stroke-width:14.28571415;stroke-linejoin:round;stroke-miterlimit:4;stroke-opacity:0.47596154;stroke-dasharray:14.28571429, 14.28571429;stroke-dashoffset:142.85714286"
       inkscape:original="M 400 512.375 L 382.03125 567.65625 L 323.90625 567.65625 L 370.9375 601.8125 L 352.96875 657.09375 L 400 622.90625 L 447.03125 657.09375 L 429.0625 601.8125 L 476.09375 567.65625 L 417.96875 567.65625 L 400 512.375 z "
       inkscape:radius="14.426171"
       sodipodi:type="inkscape:offset" />
    <path
       transform="translate(-280,0)"
       sodipodi:type="arc"
       style="fill:none;stroke:#000000;stroke-width:1;stroke-linejoin:round;stroke-miterlimit:4;stroke-opacity:1;stroke-dasharray:none"
       id="path3783"
       sodipodi:cx="400"
       sodipodi:cy="512.36218"
       sodipodi:rx="80"
       sodipodi:ry="80"
       d="m 424.72136,588.4467 a 80,80 0 0 1 -49.44272,0 L 400,512.36218 z"
       sodipodi:start="1.2566371"
       sodipodi:end="1.8849556"
       inkscape:transform-center-y="-40" />
    <path
       inkscape:transform-center-y="-1.2099509"
       sodipodi:end="1.8849556"
       sodipodi:start="1.2566371"
       d="m 424.72136,588.4467 a 80,80 0 0 1 -49.44272,0 L 400,512.36218 z"
       sodipodi:ry="80"
       sodipodi:rx="80"
       sodipodi:cy="512.36218"
       sodipodi:cx="400"
       id="path3785"
       style="fill:none;stroke:#000000;stroke-width:1;stroke-linejoin:round;stroke-miterlimit:4;stroke-opacity:1;stroke-dasharray:none"
       sodipodi:type="arc"
       transform="matrix(0.30901699,-0.95105652,0.95105652,0.30901699,-566.97671,789.73481)"
       inkscape:transform-center-x="36.084518" />
    <path
       inkscape:transform-center-x="14.662145"
       transform="matrix(-0.809017,-0.58778525,0.58778525,-0.809017,95.425039,1306.7074)"
       sodipodi:type="arc"
       style="fill:none;stroke:#000000;stroke-width:1;stroke-linejoin:round;stroke-miterlimit:4;stroke-opacity:1;stroke-dasharray:none"
       id="path3787"
       sodipodi:cx="400"
       sodipodi:cy="512.36218"
       sodipodi:rx="80"
       sodipodi:ry="80"
       d="m 424.72136,588.4467 a 80,80 0 0 1 -49.44272,0 L 400,512.36218 z"
       sodipodi:start="1.2566371"
       sodipodi:end="1.8849556"
       inkscape:transform-center-y="26.679141" />
    <path
       inkscape:transform-center-y="26.67912"
       sodipodi:end="1.8849556"
       sodipodi:start="1.2566371"
       d="m 424.72136,588.4467 a 80,80 0 0 1 -49.44272,0 L 400,512.36218 z"
       sodipodi:ry="80"
       sodipodi:rx="80"
       sodipodi:cy="512.36218"
       sodipodi:cx="400"
       id="path3790"
       style="fill:none;stroke:#000000;stroke-width:1;stroke-linejoin:round;stroke-miterlimit:4;stroke-opacity:1;stroke-dasharray:none"
       sodipodi:type="arc"
       transform="matrix(-0.80901699,0.58778526,-0.58778526,-0.80901699,791.7886,836.47917)"
       inkscape:transform-center-x="-14.662188" />
    <path
       inkscape:transform-center-x="-36.084553"
       transform="matrix(0.309017,0.95105651,-0.95105651,0.309017,559.76314,28.889553)"
       sodipodi:type="arc"
       style="fill:none;stroke:#000000;stroke-width:1;stroke-linejoin:round;stroke-miterlimit:4;stroke-opacity:1;stroke-dasharray:none"
       id="path3792"
       sodipodi:cx="400"
       sodipodi:cy="512.36218"
       sodipodi:rx="80"
       sodipodi:ry="80"
       d="m 424.72136,588.4467 a 80,80 0 0 1 -49.44272,0 L 400,512.36218 z"
       sodipodi:start="1.2566371"
       sodipodi:end="1.8849556"
       inkscape:transform-center-y="-1.209992" />
  </g>
  <g
     inkscape:groupmode="layer"
     id="layer4"
     inkscape:label="clearCircle"
     style="display:inline" />
  <g
     inkscape:groupmode="layer"
     id="layer3"
     inkscape:label="Clear"
     style="display:inline" />
  <g
     inkscape:groupmode="layer"
     id="layer2"
     inkscape:label="Selected"
     style="display:inline"
     transform="translate(0,-16)" />
</svg>
