<?xml version="1.0" encoding="UTF-8" standalone="no"?>
<!-- Created with Inkscape (http://www.inkscape.org/) -->

<svg
   xmlns:dc="http://purl.org/dc/elements/1.1/"
   xmlns:cc="http://creativecommons.org/ns#"
   xmlns:rdf="http://www.w3.org/1999/02/22-rdf-syntax-ns#"
   xmlns:svg="http://www.w3.org/2000/svg"
   xmlns="http://www.w3.org/2000/svg"
   xmlns:sodipodi="http://sodipodi.sourceforge.net/DTD/sodipodi-0.dtd"
   xmlns:inkscape="http://www.inkscape.org/namespaces/inkscape"
   width="32"
   height="32"
   id="svg2"
   version="1.1"
   inkscape:version="0.48.2 r9819"
   sodipodi:docname="star.svg">
  <defs
     id="defs4" />
  <sodipodi:namedview
     id="base"
     pagecolor="#ffffff"
     bordercolor="#666666"
     borderopacity="1.0"
     inkscape:pageopacity="0.0"
     inkscape:pageshadow="2"
     inkscape:zoom="1"
     inkscape:cx="16.681913"
     inkscape:cy="138.8236"
     inkscape:document-units="px"
     inkscape:current-layer="layer1"
     showgrid="false"
     inkscape:window-width="1295"
     inkscape:window-height="1083"
     inkscape:window-x="299"
     inkscape:window-y="257"
     inkscape:window-maximized="0">
    <inkscape:grid
       type="xygrid"
       id="grid2985"
       empspacing="4"
       visible="true"
       enabled="true"
       snapvisiblegridlinesonly="true" />
  </sodipodi:namedview>
  <metadata
     id="metadata7">
    <rdf:RDF>
      <cc:Work
         rdf:about="">
        <dc:format>image/svg+xml</dc:format>
        <dc:type
           rdf:resource="http://purl.org/dc/dcmitype/StillImage" />
        <dc:title></dc:title>
      </cc:Work>
    </rdf:RDF>
  </metadata>
  <g
     inkscape:label="Unselected"
     inkscape:groupmode="layer"
     id="layer1"
     transform="translate(0,-1020.3622)"
     style="display:inline" />
  <g
     inkscape:groupmode="layer"
     id="layer2"
     inkscape:label="Selected"
     style="display:inline"
     transform="translate(0,-16)">
    <path
       transform="matrix(0.14,0,0,0.14,-39.93875,-50.35875)"
       d="m 399.375,497.96875 a 14.427614,14.427614 0 0 0 -13.09375,9.9375 l -14.71875,45.3125 -47.65625,0 a 14.427614,14.427614 0 0 0 -8.46875,26.125 l 38.53125,28 L 339.25,652.625 a 14.427614,14.427614 0 0 0 22.1875,16.125 L 400,640.71875 438.5625,668.75 A 14.427614,14.427614 0 0 0 460.75,652.625 l -14.71875,-45.28125 38.53125,-28 a 14.427614,14.427614 0 0 0 -8.46875,-26.125 l -47.65625,0 -14.71875,-45.3125 a 14.427614,14.427614 0 0 0 -14.34375,-9.9375 z"
       id="path3767"
       style="fill:#f9d58b;fill-opacity:1;stroke:#000000;stroke-width:14.28571415;stroke-linejoin:round;stroke-miterlimit:4;stroke-opacity:0.6682692;stroke-dasharray:none;display:inline"
       inkscape:original="M 400 512.375 L 382.03125 567.65625 L 323.90625 567.65625 L 370.9375 601.8125 L 352.96875 657.09375 L 400 622.90625 L 447.03125 657.09375 L 429.0625 601.8125 L 476.09375 567.65625 L 417.96875 567.65625 L 400 512.375 z "
       inkscape:radius="14.426171"
       sodipodi:type="inkscape:offset" />
  </g>
</svg>
